<svg xmlns="http://www.w3.org/2000/svg" xmlns:xlink="http://www.w3.org/1999/xlink" viewBox="0 0 888.66 670.07"><defs><style>.cls-1{isolation:isolate;}.cls-2{fill:#f1f9fb;}.cls-3{fill:#575769;}.cls-4{fill:#a8dae8;}.cls-5{fill:#f7a513;}.cls-6{fill:#2b82ae;}.cls-7{fill:#2e2e7e;}.cls-8{fill:#4a4d9c;}.cls-9{fill:#23232b;}.cls-10{fill:#3e3e4c;}.cls-11{fill:#d8eef4;}.cls-12{fill:#84849b;}.cls-13{fill:#e72379;}.cls-13,.cls-19{stroke:#e83a57;stroke-width:0.5px;}.cls-13,.cls-19,.cls-31{stroke-miterlimit:10;}.cls-14{fill:url(#linear-gradient);}.cls-15{fill:url(#linear-gradient-2);}.cls-16,.cls-19{fill:#fff;}.cls-17{fill:url(#radial-gradient);}.cls-18{fill:#e73359;}.cls-20{fill:#70c7da;}.cls-21{fill:#44bdd4;}.cls-22{fill:#595860;}.cls-23{fill:#ec6732;}.cls-24{fill:#2a2b64;}.cls-25{fill:#e94834;}.cls-26{fill:url(#linear-gradient-3);}.cls-27{fill:#cd2348;opacity:0.42;mix-blend-mode:multiply;}.cls-28{fill:#379ac1;}.cls-29{fill:url(#linear-gradient-4);}.cls-30{fill:#e72f62;}.cls-31{fill:none;stroke:#f7a513;}</style><linearGradient id="linear-gradient" x1="408.64" y1="264.78" x2="446.47" y2="264.78" gradientUnits="userSpaceOnUse"><stop offset="0" stop-color="#e72381"/><stop offset="1" stop-color="#e73653"/></linearGradient><linearGradient id="linear-gradient-2" x1="333.56" y1="282.76" x2="381.32" y2="282.76" xlink:href="#linear-gradient"/><radialGradient id="radial-gradient" cx="497.8" cy="434.49" r="9.11" xlink:href="#linear-gradient"/><linearGradient id="linear-gradient-3" x1="677.1" y1="661.5" x2="645.05" y2="453.44" xlink:href="#linear-gradient"/><linearGradient id="linear-gradient-4" x1="360.86" y1="515.96" x2="394.23" y2="515.96" gradientTransform="translate(525.11 -106.12) rotate(49.54)" xlink:href="#linear-gradient"/></defs><title>guy</title><g class="cls-1"><g id="Layer_1" data-name="Layer 1"><path class="cls-2" d="M221.64,242.8c-52.38,34.33-67.86,51.53-54.63,101.61S268.38,383.28,299.09,337s84.48-50.36,68.79-74.78S252.69,222.45,221.64,242.8Z" transform="translate(-114.36 -231.14)"/><path class="cls-2" d="M612.79,233.21C467.48,213,391.19,346,291.06,412.45s-178,143.22-153.56,277.32S410.1,906,544.68,826s204.86,25,310.17,0S1205.6,315.63,612.79,233.21Z" transform="translate(-114.36 -231.14)"/><path class="cls-3" d="M336,356.27,341.51,429a3.77,3.77,0,0,1-3.81,4.13H231.63a4.54,4.54,0,0,1-4.45-4.13l-5.53-72.69a3.78,3.78,0,0,1,3.82-4.13H331.54A4.54,4.54,0,0,1,336,356.27Z" transform="translate(-114.36 -231.14)"/><path class="cls-4" d="M340.2,411.64,341.51,429a3.77,3.77,0,0,1-3.81,4.13H231.63a4.54,4.54,0,0,1-4.45-4.13l-1.58-20.83L254.31,374l36.75,38.41L314.38,388Z" transform="translate(-114.36 -231.14)"/><path class="cls-5" d="M321.65,370a7.9,7.9,0,0,1-8,8.65,9.49,9.49,0,0,1-9.3-8.65,7.9,7.9,0,0,1,8-8.65A9.49,9.49,0,0,1,321.65,370Z" transform="translate(-114.36 -231.14)"/><polygon class="cls-6" points="387.67 317.72 384.65 329.82 376.49 362.38 330.43 362.38 349.43 317.72 387.67 317.72"/><path class="cls-7" d="M579,406.32l9.31,135a6.66,6.66,0,0,1-6.71,7.19H390.25a11,11,0,0,1-10.75-10l-8.74-126.74a9.38,9.38,0,0,1,9.46-10.13H573.85A5.21,5.21,0,0,1,579,406.32Z" transform="translate(-114.36 -231.14)"/><path class="cls-8" d="M584.51,406.74l9.3,134.94a6.62,6.62,0,0,1-6.69,7.19H392.93a7.82,7.82,0,0,1-7.68-7.19l-9.31-134.94a4.39,4.39,0,0,1,4.44-4.77h199A5.18,5.18,0,0,1,584.51,406.74Z" transform="translate(-114.36 -231.14)"/><polygon class="cls-9" points="464.21 177.02 472.68 299.91 276.19 299.91 267.72 177.02 464.21 177.02"/><polygon class="cls-10" points="319.66 177.02 328.13 299.91 276.19 299.91 267.72 177.02 319.66 177.02"/><polygon class="cls-3" points="319.6 246.37 277.38 246.37 273.59 191.43 315.81 191.43 319.6 246.37"/><polygon class="cls-3" points="322.72 291.65 280.5 291.65 277.92 254.26 320.15 254.26 322.72 291.65"/><polygon class="cls-11" points="464.21 177.02 464.78 185.32 268.3 185.32 267.72 177.02 464.21 177.02"/><polygon class="cls-12" points="281.66 199.69 277.65 199.69 277.38 195.69 281.39 195.69 281.66 199.69"/><polygon class="cls-5" points="313.2 199.69 309.2 199.69 308.92 195.69 312.93 195.69 313.2 199.69"/><polygon class="cls-12" points="304.25 198.93 283.58 198.93 283.41 196.51 304.08 196.51 304.25 198.93"/><polygon class="cls-12" points="282.25 208.28 278.25 208.28 277.97 204.27 281.98 204.27 282.25 208.28"/><polygon class="cls-5" points="313.8 208.28 309.79 208.28 309.51 204.27 313.52 204.27 313.8 208.28"/><polygon class="cls-12" points="304.84 207.52 284.17 207.52 284.01 205.1 304.67 205.1 304.84 207.52"/><polygon class="cls-12" points="282.89 217.5 278.88 217.5 278.61 213.5 282.61 213.5 282.89 217.5"/><polygon class="cls-12" points="314.43 217.5 310.43 217.5 310.15 213.5 314.16 213.5 314.43 217.5"/><polygon class="cls-12" points="305.48 216.74 284.81 216.74 284.64 214.32 305.31 214.32 305.48 216.74"/><polygon class="cls-12" points="283.48 226.09 279.48 226.09 279.2 222.08 283.2 222.08 283.48 226.09"/><polygon class="cls-12" points="315.02 226.09 311.02 226.09 310.74 222.08 314.75 222.08 315.02 226.09"/><polygon class="cls-12" points="306.07 225.32 285.4 225.32 285.23 222.91 305.9 222.91 306.07 225.32"/><polygon class="cls-12" points="284.09 234.87 280.08 234.87 279.8 230.86 283.81 230.86 284.09 234.87"/><polygon class="cls-13" points="315.63 234.87 311.62 234.87 311.35 230.86 315.35 230.86 315.63 234.87"/><polygon class="cls-12" points="306.67 234.1 286 234.1 285.84 231.69 306.51 231.69 306.67 234.1"/><polygon class="cls-12" points="316.25 243.8 280.69 243.8 280.56 241.79 316.11 241.79 316.25 243.8"/><polygon class="cls-3" points="469.67 256.3 325.13 256.3 324.55 247.87 469.09 247.87 469.67 256.3"/><path class="cls-12" d="M461.32,483.22a1.87,1.87,0,0,1-1.89,2,2.22,2.22,0,0,1-2.18-2,1.87,1.87,0,0,1,1.9-2A2.21,2.21,0,0,1,461.32,483.22Z" transform="translate(-114.36 -231.14)"/><path class="cls-12" d="M469.72,483.22a1.88,1.88,0,0,1-1.9,2,2.21,2.21,0,0,1-2.17-2,1.87,1.87,0,0,1,1.89-2A2.21,2.21,0,0,1,469.72,483.22Z" transform="translate(-114.36 -231.14)"/><polygon class="cls-12" points="375.51 253.81 360.31 253.81 360.07 250.44 375.27 250.44 375.51 253.81"/><polygon class="cls-12" points="452.04 253.81 436.84 253.81 436.61 250.44 451.81 250.44 452.04 253.81"/><polygon class="cls-12" points="399.26 253.81 395.89 253.81 395.66 250.44 399.03 250.44 399.26 253.81"/><polygon class="cls-12" points="405.94 253.81 402.57 253.81 402.33 250.44 405.7 250.44 405.94 253.81"/><polygon class="cls-12" points="412.33 253.81 408.96 253.81 408.73 250.44 412.1 250.44 412.33 253.81"/><polygon class="cls-5" points="402.4 266.6 332.57 266.6 332.32 262.97 402.15 262.97 402.4 266.6"/><polygon class="cls-14" points="446.47 266.6 408.88 266.6 408.63 262.97 446.22 262.97 446.47 266.6"/><polygon class="cls-4" points="423.34 275.58 333.19 275.58 332.94 271.96 423.09 271.96 423.34 275.58"/><polygon class="cls-5" points="448.33 293.56 334.43 293.56 334.18 289.94 448.08 289.94 448.33 293.56"/><polygon class="cls-15" points="381.31 284.57 333.81 284.57 333.56 280.95 381.06 280.95 381.31 284.57"/><polygon class="cls-8" points="447.09 275.58 429.44 275.58 429.19 271.96 446.84 271.96 447.09 275.58"/><polygon class="cls-16" points="428.65 241.79 347.75 241.79 344.36 192.57 425.26 192.57 428.65 241.79"/><path class="cls-17" d="M505,438.24a6.05,6.05,0,0,1-6.12,7,8.16,8.16,0,0,1-7.87-7,6,6,0,0,1,6.13-7A8.14,8.14,0,0,1,505,438.24Z" transform="translate(-114.36 -231.14)"/><path class="cls-4" d="M496,454.71h0a.85.85,0,0,1-.82-.73l-.62-4.92a.63.63,0,0,1,.65-.73h0a.85.85,0,0,1,.82.73l.61,4.92A.63.63,0,0,1,496,454.71Z" transform="translate(-114.36 -231.14)"/><path class="cls-4" d="M502,464.54h0a.86.86,0,0,1-.83-.73l-1.38-11.17a.63.63,0,0,1,.64-.73h0a.85.85,0,0,1,.82.73l1.39,11.17A.63.63,0,0,1,502,464.54Z" transform="translate(-114.36 -231.14)"/><path class="cls-4" d="M496.63,459.48h0a.86.86,0,0,1-.82-.73l-.12-.92a.63.63,0,0,1,.64-.73h0a.86.86,0,0,1,.83.73l.11.92A.63.63,0,0,1,496.63,459.48Z" transform="translate(-114.36 -231.14)"/><path class="cls-4" d="M504.8,451.52h0a.86.86,0,0,1-.82-.73l-.12-.92a.63.63,0,0,1,.64-.73h0a.86.86,0,0,1,.83.73l.11.92A.63.63,0,0,1,504.8,451.52Z" transform="translate(-114.36 -231.14)"/><path class="cls-5" d="M519,437.64h0a.32.32,0,0,1-.32-.28l-.14-1.14a.24.24,0,0,1,.25-.28h0a.33.33,0,0,1,.31.28l.14,1.14A.24.24,0,0,1,519,437.64Z" transform="translate(-114.36 -231.14)"/><path class="cls-5" d="M519.34,440.29h0A.33.33,0,0,1,519,440l-.14-1.14a.24.24,0,0,1,.24-.28h0a.32.32,0,0,1,.32.28l.14,1.14A.24.24,0,0,1,519.34,440.29Z" transform="translate(-114.36 -231.14)"/><path class="cls-5" d="M519.54,438.12h0a.24.24,0,0,1,.24-.28h1.14a.32.32,0,0,1,.32.28h0a.24.24,0,0,1-.25.27h-1.14A.32.32,0,0,1,519.54,438.12Z" transform="translate(-114.36 -231.14)"/><path class="cls-5" d="M516.89,438.12h0a.24.24,0,0,1,.25-.28h1.14a.32.32,0,0,1,.31.28h0a.23.23,0,0,1-.24.27h-1.14A.32.32,0,0,1,516.89,438.12Z" transform="translate(-114.36 -231.14)"/><path class="cls-5" d="M477.28,460h0a.32.32,0,0,1-.32-.28l-.14-1.14a.24.24,0,0,1,.25-.28h0a.33.33,0,0,1,.31.28l.14,1.14A.24.24,0,0,1,477.28,460Z" transform="translate(-114.36 -231.14)"/><path class="cls-5" d="M477.61,462.64h0a.33.33,0,0,1-.32-.28l-.14-1.14a.24.24,0,0,1,.24-.28h0a.32.32,0,0,1,.32.28l.14,1.14A.24.24,0,0,1,477.61,462.64Z" transform="translate(-114.36 -231.14)"/><path class="cls-5" d="M477.81,460.46h0a.23.23,0,0,1,.24-.27h1.14a.32.32,0,0,1,.32.27h0a.24.24,0,0,1-.25.28h-1.14A.32.32,0,0,1,477.81,460.46Z" transform="translate(-114.36 -231.14)"/><path class="cls-5" d="M475.16,460.46h0a.24.24,0,0,1,.25-.27h1.14a.32.32,0,0,1,.31.27h0a.24.24,0,0,1-.24.28h-1.14A.32.32,0,0,1,475.16,460.46Z" transform="translate(-114.36 -231.14)"/><path class="cls-5" d="M476.71,434.15h0a.33.33,0,0,1-.31-.28l-.14-1.14a.24.24,0,0,1,.24-.28h0a.32.32,0,0,1,.32.28l.14,1.14A.24.24,0,0,1,476.71,434.15Z" transform="translate(-114.36 -231.14)"/><path class="cls-5" d="M477,436.79h0a.32.32,0,0,1-.31-.28l-.14-1.14a.24.24,0,0,1,.24-.28h0a.33.33,0,0,1,.31.28l.15,1.14A.24.24,0,0,1,477,436.79Z" transform="translate(-114.36 -231.14)"/><path class="cls-5" d="M477.24,434.62h0a.25.25,0,0,1,.25-.28h1.14a.32.32,0,0,1,.31.28h0a.24.24,0,0,1-.24.28h-1.14A.32.32,0,0,1,477.24,434.62Z" transform="translate(-114.36 -231.14)"/><path class="cls-5" d="M474.6,434.62h0a.24.24,0,0,1,.24-.28H476a.33.33,0,0,1,.31.28h0a.24.24,0,0,1-.24.28h-1.15A.32.32,0,0,1,474.6,434.62Z" transform="translate(-114.36 -231.14)"/><path class="cls-5" d="M524.43,458.67h0a.33.33,0,0,1-.32-.28l-.14-1.14a.24.24,0,0,1,.24-.28h0a.32.32,0,0,1,.32.28l.14,1.14A.24.24,0,0,1,524.43,458.67Z" transform="translate(-114.36 -231.14)"/><path class="cls-5" d="M524.75,461.31h0a.32.32,0,0,1-.31-.27l-.14-1.15a.24.24,0,0,1,.24-.28h0a.33.33,0,0,1,.32.28L525,461A.24.24,0,0,1,524.75,461.31Z" transform="translate(-114.36 -231.14)"/><path class="cls-5" d="M525,459.14h0a.24.24,0,0,1,.24-.28h1.14a.33.33,0,0,1,.32.28h0a.24.24,0,0,1-.25.28h-1.14A.32.32,0,0,1,525,459.14Z" transform="translate(-114.36 -231.14)"/><path class="cls-5" d="M522.31,459.14h0a.24.24,0,0,1,.25-.28h1.14a.33.33,0,0,1,.31.28h0a.24.24,0,0,1-.24.28h-1.14A.32.32,0,0,1,522.31,459.14Z" transform="translate(-114.36 -231.14)"/><polygon class="cls-3" points="463.13 216.36 437.95 216.36 436.08 189.26 461.27 189.26 463.13 216.36"/><polygon class="cls-3" points="465.06 244.34 439.88 244.34 438.14 219.16 463.33 219.16 465.06 244.34"/><polygon class="cls-12" points="460.73 224.34 441.84 224.34 441.72 222.62 460.61 222.62 460.73 224.34"/><polygon class="cls-12" points="461.02 228.63 442.14 228.63 442.02 226.91 460.9 226.91 461.02 228.63"/><polygon class="cls-12" points="461.28 232.41 442.4 232.41 442.28 230.7 461.17 230.7 461.28 232.41"/><polygon class="cls-5" points="456.49 241.79 448.86 241.79 448.68 239.12 456.31 239.12 456.49 241.79"/><polygon class="cls-5" points="442.88 196.1 439.07 196.1 438.8 192.28 442.62 192.28 442.88 196.1"/><polygon class="cls-5" points="448.5 196.1 444.69 196.1 444.42 192.28 448.24 192.28 448.5 196.1"/><polygon class="cls-5" points="453.86 196.1 450.04 196.1 449.78 192.28 453.6 192.28 453.86 196.1"/><polygon class="cls-5" points="459.48 196.1 455.66 196.1 455.4 192.28 459.22 192.28 459.48 196.1"/><polygon class="cls-18" points="443.29 202.02 439.48 202.02 439.21 198.2 443.03 198.2 443.29 202.02"/><polygon class="cls-18" points="448.91 202.02 445.1 202.02 444.83 198.2 448.65 198.2 448.91 202.02"/><polygon class="cls-18" points="454.27 202.02 450.45 202.02 450.19 198.2 454 198.2 454.27 202.02"/><polygon class="cls-18" points="459.89 202.02 456.07 202.02 455.81 198.2 459.63 198.2 459.89 202.02"/><polygon class="cls-4" points="443.69 207.8 439.87 207.8 439.61 203.99 443.43 203.99 443.69 207.8"/><polygon class="cls-4" points="449.31 207.8 445.49 207.8 445.23 203.99 449.05 203.99 449.31 207.8"/><polygon class="cls-4" points="454.67 207.8 450.85 207.8 450.59 203.99 454.4 203.99 454.67 207.8"/><polygon class="cls-11" points="449.7 213.5 445.89 213.5 445.62 209.68 449.44 209.68 449.7 213.5"/><polygon class="cls-11" points="455.06 213.5 451.24 213.5 450.98 209.68 454.8 209.68 455.06 213.5"/><polygon class="cls-4" points="460.29 207.8 456.47 207.8 456.21 203.99 460.02 203.99 460.29 207.8"/><path class="cls-19" d="M559.33,412.31a1.58,1.58,0,0,1-1.6,1.72,1.86,1.86,0,0,1-1.83-1.72,1.58,1.58,0,0,1,1.6-1.71A1.87,1.87,0,0,1,559.33,412.31Z" transform="translate(-114.36 -231.14)"/><path class="cls-19" d="M566.2,412.31a1.58,1.58,0,0,1-1.6,1.72,1.86,1.86,0,0,1-1.83-1.72,1.58,1.58,0,0,1,1.59-1.71A1.87,1.87,0,0,1,566.2,412.31Z" transform="translate(-114.36 -231.14)"/><path class="cls-19" d="M573.26,412.31a1.59,1.59,0,0,1-1.6,1.72,1.86,1.86,0,0,1-1.83-1.72,1.58,1.58,0,0,1,1.59-1.71A1.87,1.87,0,0,1,573.26,412.31Z" transform="translate(-114.36 -231.14)"/><polygon class="cls-20" points="392.5 317.72 389.48 329.82 381.32 362.38 337.8 362.38 349.81 329.82 354.26 317.72 392.5 317.72"/><polygon class="cls-6" points="392.5 317.72 389.48 329.82 349.81 329.82 354.26 317.72 392.5 317.72"/><polygon class="cls-6" points="564.94 396.68 519.94 660.66 531.39 660.66 587.07 396.68 564.94 396.68"/><polygon class="cls-6" points="671.18 396.68 677.15 660.66 665.7 660.66 649.05 396.68 671.18 396.68"/><rect class="cls-6" x="108.37" y="362.38" width="497.56" height="10.02"/><polygon class="cls-7" points="590.37 396.68 123.87 396.68 118.52 372.4 590.37 372.4 590.37 396.68"/><rect class="cls-21" x="255.13" y="362.38" width="442.27" height="10.02"/><polygon class="cls-8" points="672.98 396.68 237.33 396.68 246.39 372.4 681.84 372.4 672.98 396.68"/><polygon class="cls-6" points="130.74 396.68 85.74 660.66 97.19 660.66 152.87 396.68 130.74 396.68"/><polygon class="cls-21" points="236.98 396.68 242.95 660.66 231.5 660.66 214.85 396.68 236.98 396.68"/><path class="cls-22" d="M627,593H589.7s4.92-13.49,19.55-14c.17,0,11,0,15.69,6.85A12.46,12.46,0,0,1,627,593Z" transform="translate(-114.36 -231.14)"/><path class="cls-9" d="M627,593H589.7c9.57-9,19.8-5.33,27.92-3.17s7.32-4,7.32-4A12.46,12.46,0,0,1,627,593Z" transform="translate(-114.36 -231.14)"/><path class="cls-23" d="M632.67,568s-6.61.18-14,0-13.86,4.49-17.93,11-8.09,6.59-6.84,7.29S609.25,579,609.25,579a42,42,0,0,0,14.24,6c5.92,1.3,13.36-.51,13.36-.51l6.67-.76Z" transform="translate(-114.36 -231.14)"/><path class="cls-9" d="M538.91,593.4H435l2.11-2.36a7.82,7.82,0,0,1,5.85-2.62h95.95Z" transform="translate(-114.36 -231.14)"/><path class="cls-10" d="M564.73,593.4H460.82l2.11-2.36a7.82,7.82,0,0,1,5.85-2.62h96Z" transform="translate(-114.36 -231.14)"/><path class="cls-23" d="M614.85,704.76s5.34,122.32,0,150.49a55.49,55.49,0,0,1-15.24,12.64v13.33h41.47a135.64,135.64,0,0,0-.61-26.54s4.9-46.44,11.77-82.31a301.42,301.42,0,0,0,5.34-65.13Z" transform="translate(-114.36 -231.14)"/><path class="cls-8" d="M494.8,865.71s-11.41,6.06-20.37,9.11-17.94,6.68-16.41,17h79s1-7.31-.39-11.86Z" transform="translate(-114.36 -231.14)"/><path class="cls-5" d="M522.28,670.38s-4.73,5.2-7.79,24.28-5.6,126.37-4.08,155.05c0,0-9.25,11.27-15.61,16l2.52,14.23h39.3a163.56,163.56,0,0,0-3-24.92s2.91-39.79,10.61-69.8,13.05-54,11.27-69.19l16.14-5.86Z" transform="translate(-114.36 -231.14)"/><path class="cls-7" d="M680,683.47c-9.65,17.17-38.41,15.27-64.36,18.8s-41.85,15.31-41.85,15.31c-15.48-3.77-26.34-9.83-33.94-16.49C522.36,685.91,522,667.78,522,667.78c18.22-13.77,96.54-44.6,96.54-44.6L672,630l12.31,1.56S689.64,666.3,680,683.47Z" transform="translate(-114.36 -231.14)"/><path class="cls-24" d="M680,683.47c-9.65,17.17-38.41,15.27-64.36,18.8s-41.85,15.31-41.85,15.31c-15.48-3.77-26.34-9.83-33.94-16.49,10.51-9.91,26.23-11.37,63.48-26,49.53-19.42,38.82-40.64,38.82-40.64L672,630l12.31,1.56S689.64,666.3,680,683.47Z" transform="translate(-114.36 -231.14)"/><path class="cls-25" d="M485.71,550.37s-1.15-2.52,0-4,7.82,11.47,7.82,11.47S486,556.58,485.71,550.37Z" transform="translate(-114.36 -231.14)"/><path class="cls-25" d="M464.17,564.15s-3.81,6.77-1.84,8.29,14.75-12.58,14.75-12.58l-8.83,0Z" transform="translate(-114.36 -231.14)"/><path class="cls-5" d="M627,544.07a214.39,214.39,0,0,1-14.08,24C603.16,582.38,589.51,598,576,599c-25.23,1.78-80.59-18.91-80.59-18.91-5.23,0-11.22-6.16-16.85-10.26a63.42,63.42,0,0,0-8.48-5.49s-11.91,8-14.06,5c-1.16-1.59,10.34-11.37,15.88-15.16s13.42-4.37,17-1.22,15.7,14.45,15.7,14.45l62.81-.45,20.26-30.5,6.42-9.67,2.6-3.92L607,530Z" transform="translate(-114.36 -231.14)"/><path class="cls-25" d="M627,544.07a214.39,214.39,0,0,1-14.08,24c-11.62-1-16.67-6.4-21-19.14-2-5.74-3.29-9.75-4.2-12.46l6.42-9.67L607,530Z" transform="translate(-114.36 -231.14)"/><path class="cls-5" d="M689.08,468.25l-36.82,4h0l-1.54.17h-.11l-.92.11s0-.11,0-.15c2.57-13.47-6.49-17.71-6.49-17.71L650,440.61,657,426l24.26,13.08A170.58,170.58,0,0,0,689.08,468.25Z" transform="translate(-114.36 -231.14)"/><path class="cls-25" d="M657.08,469.6a9.55,9.55,0,0,1-4.82,2.68h0l-1.54.17h-.11c-.3,0-.6,0-.9,0,2.57-13.47-6.49-17.71-6.49-17.71L650,440.61c5.09-4,9.2-7.15,9.2-7.15S668.27,458.75,657.08,469.6Z" transform="translate(-114.36 -231.14)"/><path class="cls-9" d="M683.6,392.32c-5.36-4.42-9.42-4.58-9.42-4.58s4.34-2.6.47-11.38c.34.95,1.87,6.47-5.58,10.4,0,0,3.71-5.49-3-12s-24.42-2.64-35.23,4.36a20,20,0,0,1-20.67.89s-1.32,9.09,5.06,10.75c-2-.37-7.13-1.62-9.6-4.13,0,0-4,16.59,12.18,17.53,0,0-2.51,11,8.58,15a29.52,29.52,0,0,1,8.31,5.24c8.37,7.11,15.76,18,15.76,18l7.6-7.28s3,15.18,7.3,19.73a21.42,21.42,0,0,0,10.8-.53,4.35,4.35,0,0,1-1.71-2.16c2.86.82,8.39.95,10.49-.61l-.89-1.84s2.37-18.61,4.69-27C692,411,689,396.76,683.6,392.32Zm-68.19-1.57a3.35,3.35,0,0,0,.6.12A5,5,0,0,1,615.41,390.75Z" transform="translate(-114.36 -231.14)"/><path class="cls-22" d="M665.38,454.83c-4.27-4.55-7.3-19.73-7.3-19.73l-7.6,7.28s-7.39-10.9-15.76-18l.66-12.73a66.36,66.36,0,0,1,6.75-.29A21.69,21.69,0,0,1,663.8,433C663.79,442,664.1,451.65,665.38,454.83Z" transform="translate(-114.36 -231.14)"/><path class="cls-5" d="M623.15,403.3a98.86,98.86,0,0,0,1.36,17.47c1.53,8,1.87,8,1.34,10s-3.84,11-2.9,12.84c.29.56,4.63,1.54,4.63,1.54a47.31,47.31,0,0,0,2.56,8.91c2.3,5.76,5.23,10.65,9.59,10.13s12.58-4.22,17.15-11.62c3.25-5.27,2.28-19.13,2.28-19.13a10.38,10.38,0,0,0,.88-11.39c-3.31-6.69-12.85-5.2-10.26,9.07l-4.85-9.71s-6.5-.33-8.23-5.39c-.61-1.78-1.32-4.4-1.32-4.4C630.7,412.49,626.13,408.06,623.15,403.3Z" transform="translate(-114.36 -231.14)"/><path class="cls-26" d="M737.17,624.08c-4.66,19.59-24.11,31-59.69,31.73s-60.29-28.07-60.29-28.07c-1.76-9.33,7.94-12.93,7.94-12.93,5.2-19.14,7.2-39.1,3.62-60.49,0,0-22,3.79-29.35-9.84S585.87,529,585.87,529s20-30.66,33.61-48S659,460.25,659,460.25c36.62-4.52,49.16-.05,56.49,14.64,9.29,18.61,12,55.8,12.26,88.92,0,3.81,0,7.58,0,11.26C727.58,604,737.17,624.08,737.17,624.08Z" transform="translate(-114.36 -231.14)"/><path class="cls-27" d="M737.17,624.08c-4.66,19.59-24.11,31-59.69,31.73s-60.29-28.07-60.29-28.07c-1.76-9.33,7.94-12.93,7.94-12.93,5.2-19.14,7.2-39.1,3.62-60.49l29-34.94s-4.22,38.69-19.16,46.83c0,0,13.68,32.54,32.75,44s50.25,5.48,50.25,5.48-41.49-18.78-53.69-58.5c0,0,15.33,21,33,15.35,12-3.85,17.24-8.26,26.85-8.73,0,3.81,0,7.58,0,11.26C727.58,604,737.17,624.08,737.17,624.08Z" transform="translate(-114.36 -231.14)"/><polygon class="cls-28" points="564.16 476.87 567.74 660.66 574.64 660.66 581.14 476.87 564.16 476.87"/><polygon class="cls-21" points="616.4 476.87 677.12 660.66 684.02 660.66 633.38 476.87 616.4 476.87"/><path class="cls-3" d="M824.33,569.74c-14.49,29.4-24.47,58.9-29.05,88.47a58.84,58.84,0,0,1-58.09,49.95h-147a27.34,27.34,0,0,1-23.68-13.68l90-1.84,24.21-81.17a58.47,58.47,0,0,1,56-41.73Z" transform="translate(-114.36 -231.14)"/><polygon class="cls-28" points="471.96 476.87 429.82 660.66 436.72 660.66 488.94 476.87 471.96 476.87"/><polygon class="cls-21" points="524.2 476.87 538.78 660.66 545.68 660.66 541.18 476.87 524.2 476.87"/><path class="cls-10" d="M824.33,569.74c-14.49,29.4-24.47,58.9-29.05,88.47a58.84,58.84,0,0,1-58.09,49.95h-147a27.34,27.34,0,0,1-23.68-13.68l90-1.84s92.47,9.46,115.91-34.2S799.39,579.65,824.33,569.74Z" transform="translate(-114.36 -231.14)"/><path class="cls-7" d="M599.61,867.89s-2.7,1.4-10.46,3.56-11.83,12.08-10.55,20.35h63.52s.4-6.66-1-10.58H608.36s-3-10.66-.13-19.32A33.17,33.17,0,0,1,599.61,867.89Z" transform="translate(-114.36 -231.14)"/><polygon class="cls-9" points="173.48 280.95 170.93 282.78 188.61 362.25 194.97 362.25 198.53 329.46 173.48 280.95"/><polygon class="cls-10" points="298.25 362.38 193.32 362.38 173.48 280.95 278.41 280.95 298.25 362.38"/><polygon class="cls-20" points="194.14 347.67 178.93 285.23 275.04 285.23 290.26 347.67 194.14 347.67"/><polygon class="cls-8" points="337.13 362.25 191.58 362.25 191.58 356.35 332.33 356.35 337.13 362.25"/><polygon class="cls-7" points="239.76 362.25 186.96 362.25 186.96 356.35 234.96 356.35 239.76 362.25"/><rect class="cls-7" x="278.31" y="356.35" width="25.29" height="2.95"/><polygon class="cls-4" points="213.43 329.82 200.51 276.8 282.14 276.8 295.06 329.82 213.43 329.82"/><polygon class="cls-11" points="221.77 320.07 207.86 262.97 295.76 262.97 309.68 320.07 221.77 320.07"/><path class="cls-4" d="M382.64,522.67c-2.61-8.15-11.32-14.75-19.47-14.75s-12.64,6.6-10,14.75,11.32,14.75,19.47,14.75S385.24,530.82,382.64,522.67Z" transform="translate(-114.36 -231.14)"/><ellipse class="cls-29" cx="377.55" cy="515.96" rx="13.55" ry="18.63" transform="translate(-374.38 237.25) rotate(-49.54)"/><polygon class="cls-5" points="261.25 293.24 255.87 276.39 271.78 284.81 261.25 293.24"/><polygon class="cls-22" points="597.75 140.16 613.16 156.41 607 161.7 591.58 145.44 597.75 140.16"/><path class="cls-9" d="M712,369.29l17.65,18.6-8.12,7-17.65-18.6Zm13.46,17.93-13.19-13.9-4.2,3.6,13.19,13.9Z" transform="translate(-114.36 -231.14)"/><polygon class="cls-22" points="582.36 123.94 597.77 140.19 591.61 145.47 576.19 129.22 582.36 123.94"/><path class="cls-9" d="M696.58,353.07l17.65,18.6-8.12,7L688.46,360ZM710,371l-13.19-13.91-4.2,3.61,13.19,13.9Z" transform="translate(-114.36 -231.14)"/><polygon class="cls-22" points="567.19 107.95 582.61 124.2 576.44 129.49 561.03 113.23 567.19 107.95"/><path class="cls-9" d="M681.41,337.08l17.65,18.6-8.12,7L673.29,344ZM694.87,355l-13.18-13.9-4.21,3.6,13.19,13.9Z" transform="translate(-114.36 -231.14)"/><polygon class="cls-22" points="551.8 91.73 567.22 107.98 561.05 113.27 545.64 97.01 551.8 91.73"/><path class="cls-9" d="M666,320.86l17.64,18.6-8.12,7-17.64-18.6Zm13.46,17.93-13.19-13.9-4.21,3.6,13.19,13.9Z" transform="translate(-114.36 -231.14)"/><polygon class="cls-22" points="536.39 75.48 551.8 91.73 545.64 97.02 530.23 80.77 536.39 75.48"/><path class="cls-9" d="M650.61,304.61l17.65,18.6-8.12,7-17.65-18.61Zm13.46,17.93-13.18-13.9-4.21,3.61,13.19,13.9Z" transform="translate(-114.36 -231.14)"/><polygon class="cls-22" points="627.33 114.78 642.75 131.03 636.59 136.32 621.17 120.07 627.33 114.78"/><path class="cls-9" d="M741.56,343.91l17.65,18.6-8.12,7-17.65-18.61ZM755,361.84l-13.19-13.9-4.2,3.61,13.18,13.9Z" transform="translate(-114.36 -231.14)"/><polygon class="cls-22" points="611.94 98.56 627.36 114.81 621.2 120.1 605.78 103.84 611.94 98.56"/><path class="cls-9" d="M726.17,327.69l17.65,18.6-8.12,7-17.65-18.6Zm13.46,17.93-13.19-13.9-4.2,3.6,13.18,13.9Z" transform="translate(-114.36 -231.14)"/><polygon class="cls-22" points="596.77 82.57 612.19 98.82 606.03 104.11 590.61 87.86 596.77 82.57"/><path class="cls-9" d="M711,311.7l17.65,18.6-8.12,7-17.65-18.61Zm13.46,17.93-13.19-13.9-4.2,3.61,13.19,13.9Z" transform="translate(-114.36 -231.14)"/><polygon class="cls-22" points="581.39 66.35 596.8 82.6 590.64 87.89 575.22 71.64 581.39 66.35"/><path class="cls-9" d="M695.61,295.48l17.65,18.6-8.12,7-17.65-18.6Zm13.46,17.93-13.18-13.9-4.21,3.6L704.87,317Z" transform="translate(-114.36 -231.14)"/><polygon class="cls-22" points="565.97 50.1 581.39 66.36 575.23 71.64 559.81 55.39 565.97 50.1"/><path class="cls-9" d="M680.2,279.23l17.65,18.6-8.12,7-17.65-18.6Zm13.46,17.93-13.19-13.9-4.2,3.61,13.18,13.9Z" transform="translate(-114.36 -231.14)"/><polygon class="cls-22" points="614.51 113.05 636.59 136.32 613.16 156.41 591.08 133.14 614.51 113.05"/><path class="cls-9" d="M728.73,342.17,753,367.8l-25.38,21.77-24.31-25.63Zm20.13,24.95L729,346.2l-21.47,18.42,19.85,20.92Z" transform="translate(-114.36 -231.14)"/><polygon class="cls-12" points="581.71 78.48 614.59 113.13 591.16 133.22 558.29 98.57 581.71 78.48"/><path class="cls-9" d="M695.94,307.6l35.1,37-25.38,21.77-35.1-37Zm30.92,36.33-30.65-32.3-21.46,18.42,30.64,32.3Z" transform="translate(-114.36 -231.14)"/><polygon class="cls-22" points="559.81 55.39 581.71 78.48 558.29 98.57 536.39 75.48 559.81 55.39"/><path class="cls-9" d="M674,284.52,698.17,310l-25.38,21.77-24.13-25.44ZM694,309.28l-19.67-20.73L652.84,307l19.68,20.74Z" transform="translate(-114.36 -231.14)"/><path class="cls-9" d="M543.47,282l1.21,17.61H406.1L404.89,282a4.13,4.13,0,0,1,4.15-4.46H538.7A4.85,4.85,0,0,1,543.47,282Z" transform="translate(-114.36 -231.14)"/><polygon class="cls-4" points="435.76 147.84 297.17 147.84 291.73 68.51 430.32 68.51 435.76 147.84"/><path class="cls-22" d="M430.58,299.65H415.2l-8.82-21.13a4.09,4.09,0,0,1,2.66-.94h12.34Z" transform="translate(-114.36 -231.14)"/><polygon class="cls-22" points="347.72 68.51 332.34 68.51 323.14 46.44 338.52 46.44 347.72 68.51"/><polygon class="cls-22" points="377.4 68.51 362.02 68.51 352.81 46.44 368.19 46.44 377.4 68.51"/><polygon class="cls-22" points="408.9 68.51 393.52 68.51 384.32 46.44 399.7 46.44 408.9 68.51"/><path class="cls-22" d="M543.47,282l1.21,17.61h-7.52L528,277.58H538.7A4.85,4.85,0,0,1,543.47,282Z" transform="translate(-114.36 -231.14)"/><ellipse class="cls-20" cx="478.11" cy="339.34" rx="23.97" ry="25.67" transform="translate(-212.51 216.2) rotate(-45.98)"/><path class="cls-16" d="M471.26,349.39l-1.38-20.09a1.61,1.61,0,0,1,2.47-1.47l17.81,10a1.71,1.71,0,0,1,.2,2.94l-16.43,10.05A1.81,1.81,0,0,1,471.26,349.39Z" transform="translate(-114.36 -231.14)"/><rect class="cls-4" y="660.66" width="888.66" height="9.41"/><path class="cls-30" d="M940.46,716.51s-9.94-18.23-4.46-29.84,13.87-10.09,15.16-28.26,4.52-23.35,19-25.93a195.66,195.66,0,0,1,25.8-2.9s.65,36.13-15.48,47.09S973.63,713.46,940.46,716.51Z" transform="translate(-114.36 -231.14)"/><path class="cls-30" d="M889.64,689.38s-16.53-6.17-24.92-36.16-36.44-9.36-36.44-9.36,8.06-36.44,43.22-30.31S889.64,689.38,889.64,689.38Z" transform="translate(-114.36 -231.14)"/><path class="cls-30" d="M914.38,668.67s-22.89-33-11.28-54,15.06-22.36,15.06-39.57,40.42-19,47.73-37.65c0,0,2.15,39.8-14.19,54.43S951,655.61,914.38,668.67Z" transform="translate(-114.36 -231.14)"/><path class="cls-31" d="M897.3,800.2s2.91-105.26-25-164A18.9,18.9,0,0,0,847.89,627a54.49,54.49,0,0,0-7.36,3.85" transform="translate(-114.36 -231.14)"/><path class="cls-31" d="M907.62,792.68s-1.29-147.57,25.8-205.81" transform="translate(-114.36 -231.14)"/><path class="cls-31" d="M927,786.46s9-95.92,45.16-134.62" transform="translate(-114.36 -231.14)"/><rect class="cls-21" x="768.14" y="529.07" width="56.12" height="131.59"/><rect class="cls-4" x="768.14" y="549.09" width="56.12" height="12.44"/></g></g></svg>